<mxfile host="app.diagrams.net" modified="2023-03-30T10:26:01.187Z" agent="5.0 (X11; Linux aarch64) AppleWebKit/537.36 (KHTML, like Gecko) Chrome/88.0.4324.188 Safari/537.36 CrKey/1.54.250320" etag="DhoacqxmYy1_BQIZzS1l" version="20.8.23" type="github">
  <diagram name="第 1 页" id="NV9imjwKDvEAb5ltWgHD">
    <mxGraphModel dx="780" dy="613" grid="1" gridSize="10" guides="1" tooltips="1" connect="1" arrows="1" fold="1" page="1" pageScale="1" pageWidth="827" pageHeight="1169" math="0" shadow="0">
      <root>
        <mxCell id="0" />
        <mxCell id="1" parent="0" />
        <mxCell id="37K6DH33qKJGDYSge6Ck-1" value="" style="whiteSpace=wrap;html=1;aspect=fixed;" vertex="1" parent="1">
          <mxGeometry x="620" y="110" width="80" height="80" as="geometry" />
        </mxCell>
        <mxCell id="37K6DH33qKJGDYSge6Ck-2" value="" style="ellipse;shape=cloud;whiteSpace=wrap;html=1;" vertex="1" parent="1">
          <mxGeometry x="320" y="210" width="120" height="80" as="geometry" />
        </mxCell>
        <mxCell id="37K6DH33qKJGDYSge6Ck-3" value="" style="ellipse;whiteSpace=wrap;html=1;aspect=fixed;" vertex="1" parent="1">
          <mxGeometry x="310" y="40" width="80" height="80" as="geometry" />
        </mxCell>
      </root>
    </mxGraphModel>
  </diagram>
</mxfile>
